<?xml version="1.0" encoding="UTF-8"?>
<svg xmlns="http://www.w3.org/2000/svg" xmlns:xlink="http://www.w3.org/1999/xlink" width="31pt" height="30pt" viewBox="0 0 31 30" version="1.1">
<g id="surface1">
<path style=" stroke:none;fill-rule:nonzero;fill:rgb(0%,0%,0%);fill-opacity:1;" d="M 15.597656 4.902344 L 16.097656 7.789062 L 17.140625 6.394531 L 18.132812 5.046875 L 18.382812 6.683594 L 18.628906 8.269531 L 20.21875 6.058594 C 21.113281 4.855469 21.660156 3.796875 21.460938 3.652344 C 21.261719 3.558594 20.765625 4.085938 20.417969 4.855469 C 19.523438 6.777344 18.730469 6.632812 18.976562 4.566406 C 19.125 3.414062 18.976562 2.882812 18.53125 2.882812 C 18.183594 2.882812 17.882812 3.269531 17.882812 3.796875 C 17.882812 4.277344 17.535156 5 17.089844 5.335938 C 16.34375 5.914062 16.292969 5.816406 16.492188 4.230469 C 16.644531 2.933594 16.492188 2.402344 15.898438 2.257812 C 15.203125 2.117188 15.203125 2.402344 15.597656 4.902344 Z M 15.597656 4.902344 "/>
<path style=" stroke:none;fill-rule:nonzero;fill:rgb(0%,0%,0%);fill-opacity:1;" d="M 6.90625 5.671875 C 5.8125 6.585938 5.515625 7.164062 5.863281 7.402344 C 6.210938 7.597656 6.457031 7.453125 6.457031 7.019531 C 6.457031 5.816406 7.304688 6.105469 8.792969 7.882812 C 9.539062 8.796875 10.332031 9.421875 10.53125 9.328125 C 10.78125 9.183594 10.285156 8.269531 9.4375 7.308594 C 8.046875 5.671875 8 5.480469 8.792969 4.902344 C 9.242188 4.617188 9.390625 4.328125 9.042969 4.328125 C 8.742188 4.328125 7.75 4.953125 6.90625 5.671875 Z M 6.90625 5.671875 "/>
<path style=" stroke:none;fill-rule:nonzero;fill:rgb(0%,0%,0%);fill-opacity:1;" d="M 23.597656 8.941406 C 22.503906 9.855469 22.058594 10.382812 22.605469 10.144531 C 24.144531 9.375 26.082031 7.789062 25.832031 7.5 C 25.683594 7.355469 24.691406 8.027344 23.597656 8.941406 Z M 23.597656 8.941406 "/>
<path style=" stroke:none;fill-rule:nonzero;fill:rgb(0%,0%,0%);fill-opacity:1;" d="M 3.527344 10.289062 C 4.023438 10.816406 8.445312 12.453125 8.445312 12.117188 C 8.445312 11.921875 7.5 11.394531 6.308594 10.914062 C 4.320312 10.144531 3.082031 9.855469 3.527344 10.289062 Z M 3.527344 10.289062 "/>
<path style=" stroke:none;fill-rule:nonzero;fill:rgb(0%,0%,0%);fill-opacity:1;" d="M 27.324219 11.777344 C 28.070312 12.644531 27.375 12.980469 24.640625 13.125 C 23.25 13.222656 22.851562 13.414062 22.851562 14.132812 C 22.851562 14.757812 23 14.902344 23.5 14.566406 C 23.796875 14.277344 24.9375 13.941406 26.03125 13.796875 C 27.722656 13.558594 27.917969 13.605469 27.671875 14.421875 C 27.523438 14.953125 27.621094 15.382812 27.871094 15.382812 C 28.367188 15.382812 28.464844 12.980469 28.019531 11.828125 C 27.871094 11.394531 27.472656 11.058594 27.222656 11.058594 C 26.925781 11.058594 26.976562 11.347656 27.324219 11.777344 Z M 27.324219 11.777344 "/>
<path style=" stroke:none;fill-rule:nonzero;fill:rgb(0%,0%,0%);fill-opacity:1;" d="M 1.988281 15.816406 C 1.988281 16.007812 2.535156 16.105469 3.230469 15.960938 C 3.925781 15.867188 4.472656 15.671875 4.472656 15.578125 C 4.472656 15.480469 3.925781 15.382812 3.230469 15.382812 C 2.535156 15.382812 1.988281 15.578125 1.988281 15.816406 Z M 1.988281 15.816406 "/>
<path style=" stroke:none;fill-rule:nonzero;fill:rgb(0%,0%,0%);fill-opacity:1;" d="M 4.371094 17.257812 C 2.980469 18.558594 2.335938 20.289062 3.625 19.230469 C 7.550781 16.007812 7.699219 15.867188 6.707031 15.914062 C 6.160156 15.960938 5.117188 16.539062 4.371094 17.257812 Z M 4.371094 17.257812 "/>
<path style=" stroke:none;fill-rule:nonzero;fill:rgb(0%,0%,0%);fill-opacity:1;" d="M 5.714844 19.230469 C 5.214844 19.757812 4.519531 20.191406 4.125 20.191406 C 3.777344 20.191406 3.476562 20.382812 3.476562 20.625 C 3.476562 21.683594 4.320312 21.441406 6.410156 19.902344 C 8.046875 18.652344 8.347656 18.269531 7.601562 18.269531 C 7.054688 18.269531 6.210938 18.703125 5.714844 19.230469 Z M 5.714844 19.230469 "/>
<path style=" stroke:none;fill-rule:nonzero;fill:rgb(0%,0%,0%);fill-opacity:1;" d="M 21.859375 19.617188 C 21.859375 20.097656 22.851562 21.492188 22.851562 21.007812 C 22.851562 20.816406 23.648438 20.960938 24.589844 21.347656 C 27.273438 22.453125 27.027344 21.539062 24.292969 20.335938 C 22.953125 19.757812 21.859375 19.421875 21.859375 19.617188 Z M 21.859375 19.617188 "/>
<path style=" stroke:none;fill-rule:nonzero;fill:rgb(0%,0%,0%);fill-opacity:1;" d="M 20.617188 22.644531 C 21.710938 24.710938 22.105469 25.097656 21.660156 23.652344 C 21.214844 22.402344 21.410156 22.355469 23.347656 23.316406 C 24.144531 23.75 24.890625 23.847656 25.089844 23.605469 C 25.238281 23.367188 24.890625 23.027344 24.34375 22.835938 C 23.796875 22.691406 23.347656 22.355469 23.347656 22.164062 C 23.347656 22.019531 22.953125 21.828125 22.503906 21.828125 C 22.007812 21.777344 21.214844 21.585938 20.667969 21.394531 C 19.820312 21.007812 19.820312 21.058594 20.617188 22.644531 Z M 20.617188 22.644531 "/>
<path style=" stroke:none;fill-rule:nonzero;fill:rgb(0%,0%,0%);fill-opacity:1;" d="M 11.425781 23.847656 C 10.832031 25.867188 9.785156 26.632812 9.289062 25.335938 C 9.089844 24.902344 8.992188 24.902344 8.992188 25.382812 C 8.941406 26.296875 12.417969 27.597656 13.117188 26.921875 C 13.511719 26.539062 13.464844 26.441406 12.867188 26.683594 C 11.527344 27.164062 11.328125 26.152344 12.320312 24.085938 C 13.066406 22.644531 13.164062 22.117188 12.667969 21.921875 C 12.269531 21.777344 11.824219 22.453125 11.425781 23.847656 Z M 11.425781 23.847656 "/>
<path style=" stroke:none;fill-rule:nonzero;fill:rgb(0%,0%,0%);fill-opacity:1;" d="M 16.292969 25 C 16.394531 26.296875 16.691406 27.402344 16.992188 27.402344 C 17.289062 27.402344 17.339844 27.066406 17.1875 26.632812 C 17.039062 26.203125 16.890625 25.144531 16.890625 24.230469 C 16.890625 23.316406 16.742188 22.597656 16.542969 22.597656 C 16.292969 22.597656 16.246094 23.652344 16.292969 25 Z M 16.292969 25 "/>
</g>
</svg>
