<?xml version="1.0" encoding="UTF-8"?>
<svg xmlns="http://www.w3.org/2000/svg" xmlns:xlink="http://www.w3.org/1999/xlink" width="53pt" height="53pt" viewBox="0 0 53 53" version="1.1">
<g id="surface1">
<path style=" stroke:none;fill-rule:nonzero;fill:rgb(0%,0%,0%);fill-opacity:1;" d="M 26.667969 8.664062 L 27.519531 13.757812 L 29.304688 11.296875 L 31 8.917969 L 31.425781 11.804688 L 31.851562 14.609375 L 34.570312 10.703125 C 36.097656 8.578125 37.03125 6.710938 36.691406 6.457031 C 36.351562 6.285156 35.503906 7.21875 34.910156 8.578125 C 33.378906 11.976562 32.019531 11.722656 32.445312 8.070312 C 32.699219 6.03125 32.445312 5.097656 31.679688 5.097656 C 31.085938 5.097656 30.578125 5.777344 30.578125 6.710938 C 30.578125 7.558594 29.980469 8.832031 29.21875 9.429688 C 27.945312 10.445312 27.859375 10.277344 28.199219 7.472656 C 28.453125 5.179688 28.199219 4.246094 27.179688 3.992188 C 25.992188 3.738281 25.992188 4.246094 26.667969 8.664062 Z M 26.667969 8.664062 "/>
<path style=" stroke:none;fill-rule:nonzero;fill:rgb(0%,0%,0%);fill-opacity:1;" d="M 11.804688 10.023438 C 9.9375 11.636719 9.429688 12.65625 10.023438 13.082031 C 10.617188 13.417969 11.042969 13.164062 11.042969 12.402344 C 11.042969 10.277344 12.484375 10.785156 15.035156 13.929688 C 16.308594 15.542969 17.667969 16.648438 18.007812 16.476562 C 18.429688 16.222656 17.582031 14.609375 16.136719 12.910156 C 13.757812 10.023438 13.675781 9.683594 15.035156 8.664062 C 15.796875 8.152344 16.054688 7.644531 15.457031 7.644531 C 14.949219 7.644531 13.25 8.75 11.804688 10.023438 Z M 11.804688 10.023438 "/>
<path style=" stroke:none;fill-rule:nonzero;fill:rgb(0%,0%,0%);fill-opacity:1;" d="M 40.34375 15.796875 C 38.476562 17.410156 37.710938 18.347656 38.644531 17.921875 C 41.277344 16.5625 44.589844 13.757812 44.167969 13.25 C 43.910156 12.996094 42.214844 14.183594 40.34375 15.796875 Z M 40.34375 15.796875 "/>
<path style=" stroke:none;fill-rule:nonzero;fill:rgb(0%,0%,0%);fill-opacity:1;" d="M 6.03125 18.175781 C 6.878906 19.109375 14.4375 22 14.4375 21.402344 C 14.4375 21.0625 12.824219 20.128906 10.785156 19.28125 C 7.390625 17.921875 5.265625 17.410156 6.03125 18.175781 Z M 6.03125 18.175781 "/>
<path style=" stroke:none;fill-rule:nonzero;fill:rgb(0%,0%,0%);fill-opacity:1;" d="M 46.714844 20.808594 C 47.988281 22.339844 46.800781 22.933594 42.128906 23.1875 C 39.75 23.355469 39.070312 23.695312 39.070312 24.972656 C 39.070312 26.074219 39.324219 26.332031 40.175781 25.734375 C 40.683594 25.226562 42.636719 24.632812 44.507812 24.375 C 47.394531 23.953125 47.734375 24.035156 47.308594 25.480469 C 47.054688 26.414062 47.222656 27.179688 47.648438 27.179688 C 48.5 27.179688 48.667969 22.933594 47.902344 20.894531 C 47.648438 20.128906 46.96875 19.535156 46.542969 19.535156 C 46.035156 19.535156 46.121094 20.042969 46.714844 20.808594 Z M 46.714844 20.808594 "/>
<path style=" stroke:none;fill-rule:nonzero;fill:rgb(0%,0%,0%);fill-opacity:1;" d="M 3.398438 27.945312 C 3.398438 28.285156 4.332031 28.453125 5.519531 28.199219 C 6.710938 28.027344 7.644531 27.6875 7.644531 27.519531 C 7.644531 27.347656 6.710938 27.179688 5.519531 27.179688 C 4.332031 27.179688 3.398438 27.519531 3.398438 27.945312 Z M 3.398438 27.945312 "/>
<path style=" stroke:none;fill-rule:nonzero;fill:rgb(0%,0%,0%);fill-opacity:1;" d="M 7.472656 30.492188 C 5.097656 32.785156 3.992188 35.84375 6.199219 33.972656 C 12.910156 28.285156 13.164062 28.027344 11.464844 28.113281 C 10.53125 28.199219 8.75 29.21875 7.472656 30.492188 Z M 7.472656 30.492188 "/>
<path style=" stroke:none;fill-rule:nonzero;fill:rgb(0%,0%,0%);fill-opacity:1;" d="M 9.769531 33.972656 C 8.917969 34.910156 7.730469 35.671875 7.050781 35.671875 C 6.457031 35.671875 5.945312 36.011719 5.945312 36.4375 C 5.945312 38.304688 7.390625 37.882812 10.957031 35.164062 C 13.757812 32.957031 14.269531 32.277344 12.996094 32.277344 C 12.0625 32.277344 10.617188 33.039062 9.769531 33.972656 Z M 9.769531 33.972656 "/>
<path style=" stroke:none;fill-rule:nonzero;fill:rgb(0%,0%,0%);fill-opacity:1;" d="M 37.371094 34.652344 C 37.371094 35.503906 39.070312 37.964844 39.070312 37.117188 C 39.070312 36.777344 40.429688 37.03125 42.042969 37.710938 C 46.628906 39.664062 46.207031 38.050781 41.535156 35.929688 C 39.242188 34.910156 37.371094 34.3125 37.371094 34.652344 Z M 37.371094 34.652344 "/>
<path style=" stroke:none;fill-rule:nonzero;fill:rgb(0%,0%,0%);fill-opacity:1;" d="M 35.25 40.003906 C 37.117188 43.65625 37.796875 44.335938 37.03125 41.789062 C 36.269531 39.582031 36.605469 39.496094 39.917969 41.195312 C 41.277344 41.957031 42.554688 42.128906 42.894531 41.703125 C 43.148438 41.277344 42.554688 40.683594 41.617188 40.34375 C 40.683594 40.089844 39.917969 39.496094 39.917969 39.15625 C 39.917969 38.902344 39.242188 38.5625 38.476562 38.5625 C 37.625 38.476562 36.269531 38.136719 35.332031 37.796875 C 33.890625 37.117188 33.890625 37.203125 35.25 40.003906 Z M 35.25 40.003906 "/>
<path style=" stroke:none;fill-rule:nonzero;fill:rgb(0%,0%,0%);fill-opacity:1;" d="M 19.535156 42.128906 C 18.515625 45.695312 16.730469 47.054688 15.882812 44.761719 C 15.542969 43.996094 15.375 43.996094 15.375 44.847656 C 15.289062 46.460938 21.234375 48.753906 22.421875 47.5625 C 23.101562 46.882812 23.019531 46.714844 22 47.140625 C 19.707031 47.988281 19.367188 46.207031 21.0625 42.554688 C 22.339844 40.003906 22.507812 39.070312 21.660156 38.730469 C 20.980469 38.476562 20.214844 39.664062 19.535156 42.128906 Z M 19.535156 42.128906 "/>
<path style=" stroke:none;fill-rule:nonzero;fill:rgb(0%,0%,0%);fill-opacity:1;" d="M 27.859375 44.167969 C 28.027344 46.460938 28.539062 48.414062 29.046875 48.414062 C 29.558594 48.414062 29.644531 47.820312 29.386719 47.054688 C 29.132812 46.289062 28.878906 44.421875 28.878906 42.808594 C 28.878906 41.195312 28.625 39.917969 28.285156 39.917969 C 27.859375 39.917969 27.773438 41.789062 27.859375 44.167969 Z M 27.859375 44.167969 "/>
</g>
</svg>
