<?xml version="1.0" encoding="UTF-8"?>
<svg xmlns="http://www.w3.org/2000/svg" xmlns:xlink="http://www.w3.org/1999/xlink" width="59pt" height="59pt" viewBox="0 0 59 59" version="1.1">
<g id="surface1">
<path style=" stroke:none;fill-rule:nonzero;fill:rgb(0%,0%,0%);fill-opacity:1;" d="M 29.6875 9.644531 L 30.632812 15.316406 L 32.621094 12.574219 L 34.511719 9.929688 L 34.984375 13.144531 L 35.457031 16.261719 L 38.480469 11.914062 C 40.183594 9.550781 41.222656 7.46875 40.847656 7.1875 C 40.46875 6.996094 39.523438 8.035156 38.859375 9.550781 C 37.160156 13.332031 35.644531 13.046875 36.117188 8.980469 C 36.402344 6.714844 36.117188 5.671875 35.269531 5.671875 C 34.605469 5.671875 34.039062 6.429688 34.039062 7.46875 C 34.039062 8.414062 33.375 9.832031 32.527344 10.496094 C 31.105469 11.628906 31.011719 11.441406 31.390625 8.320312 C 31.675781 5.769531 31.390625 4.726562 30.257812 4.445312 C 28.933594 4.160156 28.933594 4.726562 29.6875 9.644531 Z M 29.6875 9.644531 "/>
<path style=" stroke:none;fill-rule:nonzero;fill:rgb(0%,0%,0%);fill-opacity:1;" d="M 13.144531 11.15625 C 11.0625 12.953125 10.496094 14.089844 11.15625 14.5625 C 11.820312 14.9375 12.292969 14.65625 12.292969 13.804688 C 12.292969 11.441406 13.898438 12.007812 16.734375 15.507812 C 18.152344 17.304688 19.667969 18.53125 20.042969 18.34375 C 20.519531 18.058594 19.570312 16.261719 17.964844 14.371094 C 15.316406 11.15625 15.222656 10.777344 16.734375 9.644531 C 17.585938 9.078125 17.871094 8.507812 17.207031 8.507812 C 16.640625 8.507812 14.75 9.738281 13.144531 11.15625 Z M 13.144531 11.15625 "/>
<path style=" stroke:none;fill-rule:nonzero;fill:rgb(0%,0%,0%);fill-opacity:1;" d="M 44.910156 17.585938 C 42.832031 19.382812 41.980469 20.421875 43.019531 19.949219 C 45.953125 18.4375 49.640625 15.316406 49.167969 14.75 C 48.882812 14.464844 46.992188 15.789062 44.910156 17.585938 Z M 44.910156 17.585938 "/>
<path style=" stroke:none;fill-rule:nonzero;fill:rgb(0%,0%,0%);fill-opacity:1;" d="M 6.714844 20.234375 C 7.660156 21.273438 16.074219 24.488281 16.074219 23.828125 C 16.074219 23.449219 14.277344 22.410156 12.007812 21.464844 C 8.226562 19.949219 5.863281 19.382812 6.714844 20.234375 Z M 6.714844 20.234375 "/>
<path style=" stroke:none;fill-rule:nonzero;fill:rgb(0%,0%,0%);fill-opacity:1;" d="M 52.003906 23.164062 C 53.421875 24.867188 52.097656 25.527344 46.898438 25.8125 C 44.25 26 43.492188 26.378906 43.492188 27.796875 C 43.492188 29.027344 43.777344 29.3125 44.722656 28.648438 C 45.289062 28.082031 47.464844 27.417969 49.542969 27.136719 C 52.757812 26.664062 53.136719 26.757812 52.664062 28.367188 C 52.382812 29.40625 52.570312 30.257812 53.042969 30.257812 C 53.988281 30.257812 54.179688 25.527344 53.328125 23.257812 C 53.042969 22.410156 52.285156 21.746094 51.8125 21.746094 C 51.246094 21.746094 51.339844 22.3125 52.003906 23.164062 Z M 52.003906 23.164062 "/>
<path style=" stroke:none;fill-rule:nonzero;fill:rgb(0%,0%,0%);fill-opacity:1;" d="M 3.78125 31.105469 C 3.78125 31.484375 4.820312 31.675781 6.144531 31.390625 C 7.46875 31.203125 8.507812 30.824219 8.507812 30.632812 C 8.507812 30.445312 7.46875 30.257812 6.144531 30.257812 C 4.820312 30.257812 3.78125 30.632812 3.78125 31.105469 Z M 3.78125 31.105469 "/>
<path style=" stroke:none;fill-rule:nonzero;fill:rgb(0%,0%,0%);fill-opacity:1;" d="M 8.320312 33.945312 C 5.671875 36.496094 4.445312 39.902344 6.902344 37.820312 C 14.371094 31.484375 14.65625 31.203125 12.765625 31.296875 C 11.722656 31.390625 9.738281 32.527344 8.320312 33.945312 Z M 8.320312 33.945312 "/>
<path style=" stroke:none;fill-rule:nonzero;fill:rgb(0%,0%,0%);fill-opacity:1;" d="M 10.875 37.820312 C 9.929688 38.859375 8.605469 39.710938 7.847656 39.710938 C 7.1875 39.710938 6.617188 40.089844 6.617188 40.5625 C 6.617188 42.644531 8.226562 42.167969 12.195312 39.144531 C 15.316406 36.6875 15.882812 35.929688 14.464844 35.929688 C 13.425781 35.929688 11.820312 36.78125 10.875 37.820312 Z M 10.875 37.820312 "/>
<path style=" stroke:none;fill-rule:nonzero;fill:rgb(0%,0%,0%);fill-opacity:1;" d="M 41.601562 38.578125 C 41.601562 39.523438 43.492188 42.265625 43.492188 41.320312 C 43.492188 40.941406 45.007812 41.222656 46.804688 41.980469 C 51.910156 44.15625 51.4375 42.359375 46.234375 39.996094 C 43.683594 38.859375 41.601562 38.199219 41.601562 38.578125 Z M 41.601562 38.578125 "/>
<path style=" stroke:none;fill-rule:nonzero;fill:rgb(0%,0%,0%);fill-opacity:1;" d="M 39.238281 44.535156 C 41.320312 48.597656 42.074219 49.355469 41.222656 46.519531 C 40.375 44.0625 40.75 43.964844 44.4375 45.855469 C 45.953125 46.707031 47.371094 46.898438 47.75 46.425781 C 48.03125 45.953125 47.371094 45.289062 46.332031 44.910156 C 45.289062 44.628906 44.4375 43.964844 44.4375 43.589844 C 44.4375 43.304688 43.683594 42.925781 42.832031 42.925781 C 41.886719 42.832031 40.375 42.453125 39.332031 42.074219 C 37.726562 41.320312 37.726562 41.414062 39.238281 44.535156 Z M 39.238281 44.535156 "/>
<path style=" stroke:none;fill-rule:nonzero;fill:rgb(0%,0%,0%);fill-opacity:1;" d="M 21.746094 46.898438 C 20.613281 50.867188 18.625 52.382812 17.679688 49.828125 C 17.304688 48.976562 17.113281 48.976562 17.113281 49.921875 C 17.019531 51.71875 23.636719 54.273438 24.960938 52.949219 C 25.71875 52.191406 25.625 52.003906 24.488281 52.476562 C 21.9375 53.421875 21.558594 51.4375 23.449219 47.371094 C 24.867188 44.535156 25.054688 43.492188 24.109375 43.117188 C 23.355469 42.832031 22.503906 44.15625 21.746094 46.898438 Z M 21.746094 46.898438 "/>
<path style=" stroke:none;fill-rule:nonzero;fill:rgb(0%,0%,0%);fill-opacity:1;" d="M 31.011719 49.167969 C 31.203125 51.71875 31.769531 53.894531 32.335938 53.894531 C 32.902344 53.894531 33 53.230469 32.714844 52.382812 C 32.429688 51.53125 32.148438 49.449219 32.148438 47.652344 C 32.148438 45.855469 31.863281 44.4375 31.484375 44.4375 C 31.011719 44.4375 30.917969 46.519531 31.011719 49.167969 Z M 31.011719 49.167969 "/>
</g>
</svg>
