<?xml version="1.0" encoding="UTF-8"?>
<svg xmlns="http://www.w3.org/2000/svg" xmlns:xlink="http://www.w3.org/1999/xlink" width="20pt" height="20pt" viewBox="0 0 20 20" version="1.1">
<g id="surface1">
<path style=" stroke:none;fill-rule:nonzero;fill:rgb(0%,0%,0%);fill-opacity:1;" d="M 10.0625 3.269531 L 10.382812 5.191406 L 11.058594 4.261719 L 11.699219 3.367188 L 11.859375 4.457031 L 12.019531 5.511719 L 13.042969 4.039062 C 13.621094 3.238281 13.972656 2.53125 13.847656 2.4375 C 13.71875 2.371094 13.398438 2.722656 13.171875 3.238281 C 12.597656 4.519531 12.082031 4.421875 12.242188 3.042969 C 12.339844 2.277344 12.242188 1.921875 11.957031 1.921875 C 11.730469 1.921875 11.539062 2.179688 11.539062 2.53125 C 11.539062 2.851562 11.3125 3.332031 11.027344 3.558594 C 10.542969 3.941406 10.511719 3.878906 10.640625 2.820312 C 10.738281 1.957031 10.640625 1.601562 10.257812 1.507812 C 9.808594 1.410156 9.808594 1.601562 10.0625 3.269531 Z M 10.0625 3.269531 "/>
<path style=" stroke:none;fill-rule:nonzero;fill:rgb(0%,0%,0%);fill-opacity:1;" d="M 4.457031 3.78125 C 3.75 4.390625 3.558594 4.777344 3.78125 4.9375 C 4.007812 5.0625 4.167969 4.96875 4.167969 4.679688 C 4.167969 3.878906 4.710938 4.070312 5.671875 5.257812 C 6.152344 5.867188 6.667969 6.28125 6.792969 6.21875 C 6.957031 6.121094 6.632812 5.511719 6.089844 4.871094 C 5.191406 3.78125 5.160156 3.652344 5.671875 3.269531 C 5.960938 3.078125 6.058594 2.882812 5.832031 2.882812 C 5.640625 2.882812 5 3.300781 4.457031 3.78125 Z M 4.457031 3.78125 "/>
<path style=" stroke:none;fill-rule:nonzero;fill:rgb(0%,0%,0%);fill-opacity:1;" d="M 15.222656 5.960938 C 14.519531 6.570312 14.230469 6.921875 14.582031 6.761719 C 15.578125 6.25 16.828125 5.191406 16.667969 5 C 16.570312 4.902344 15.929688 5.351562 15.222656 5.960938 Z M 15.222656 5.960938 "/>
<path style=" stroke:none;fill-rule:nonzero;fill:rgb(0%,0%,0%);fill-opacity:1;" d="M 2.277344 6.859375 C 2.597656 7.210938 5.449219 8.300781 5.449219 8.078125 C 5.449219 7.949219 4.839844 7.597656 4.070312 7.277344 C 2.789062 6.761719 1.988281 6.570312 2.277344 6.859375 Z M 2.277344 6.859375 "/>
<path style=" stroke:none;fill-rule:nonzero;fill:rgb(0%,0%,0%);fill-opacity:1;" d="M 17.628906 7.851562 C 18.109375 8.429688 17.660156 8.652344 15.898438 8.75 C 15 8.8125 14.742188 8.941406 14.742188 9.421875 C 14.742188 9.839844 14.839844 9.9375 15.160156 9.710938 C 15.351562 9.519531 16.089844 9.292969 16.792969 9.199219 C 17.882812 9.039062 18.011719 9.070312 17.851562 9.617188 C 17.757812 9.96875 17.820312 10.257812 17.980469 10.257812 C 18.300781 10.257812 18.367188 8.652344 18.078125 7.882812 C 17.980469 7.597656 17.722656 7.371094 17.5625 7.371094 C 17.371094 7.371094 17.402344 7.5625 17.628906 7.851562 Z M 17.628906 7.851562 "/>
<path style=" stroke:none;fill-rule:nonzero;fill:rgb(0%,0%,0%);fill-opacity:1;" d="M 1.28125 10.542969 C 1.28125 10.671875 1.632812 10.738281 2.082031 10.640625 C 2.53125 10.578125 2.882812 10.449219 2.882812 10.382812 C 2.882812 10.320312 2.53125 10.257812 2.082031 10.257812 C 1.632812 10.257812 1.28125 10.382812 1.28125 10.542969 Z M 1.28125 10.542969 "/>
<path style=" stroke:none;fill-rule:nonzero;fill:rgb(0%,0%,0%);fill-opacity:1;" d="M 2.820312 11.507812 C 1.921875 12.371094 1.507812 13.527344 2.339844 12.820312 C 4.871094 10.671875 4.96875 10.578125 4.328125 10.609375 C 3.972656 10.640625 3.300781 11.027344 2.820312 11.507812 Z M 2.820312 11.507812 "/>
<path style=" stroke:none;fill-rule:nonzero;fill:rgb(0%,0%,0%);fill-opacity:1;" d="M 3.6875 12.820312 C 3.367188 13.171875 2.917969 13.460938 2.660156 13.460938 C 2.4375 13.460938 2.242188 13.589844 2.242188 13.75 C 2.242188 14.457031 2.789062 14.292969 4.132812 13.269531 C 5.191406 12.4375 5.382812 12.179688 4.902344 12.179688 C 4.550781 12.179688 4.007812 12.46875 3.6875 12.820312 Z M 3.6875 12.820312 "/>
<path style=" stroke:none;fill-rule:nonzero;fill:rgb(0%,0%,0%);fill-opacity:1;" d="M 14.101562 13.078125 C 14.101562 13.398438 14.742188 14.328125 14.742188 14.007812 C 14.742188 13.878906 15.257812 13.972656 15.867188 14.230469 C 17.597656 14.96875 17.4375 14.359375 15.671875 13.558594 C 14.808594 13.171875 14.101562 12.949219 14.101562 13.078125 Z M 14.101562 13.078125 "/>
<path style=" stroke:none;fill-rule:nonzero;fill:rgb(0%,0%,0%);fill-opacity:1;" d="M 13.300781 15.097656 C 14.007812 16.472656 14.261719 16.730469 13.972656 15.769531 C 13.6875 14.9375 13.8125 14.902344 15.0625 15.542969 C 15.578125 15.832031 16.058594 15.898438 16.1875 15.738281 C 16.28125 15.578125 16.058594 15.351562 15.707031 15.222656 C 15.351562 15.128906 15.0625 14.902344 15.0625 14.777344 C 15.0625 14.679688 14.808594 14.550781 14.519531 14.550781 C 14.199219 14.519531 13.6875 14.390625 13.332031 14.261719 C 12.789062 14.007812 12.789062 14.039062 13.300781 15.097656 Z M 13.300781 15.097656 "/>
<path style=" stroke:none;fill-rule:nonzero;fill:rgb(0%,0%,0%);fill-opacity:1;" d="M 7.371094 15.898438 C 6.988281 17.242188 6.3125 17.757812 5.992188 16.890625 C 5.867188 16.601562 5.800781 16.601562 5.800781 16.921875 C 5.769531 17.53125 8.011719 18.398438 8.460938 17.949219 C 8.71875 17.691406 8.6875 17.628906 8.300781 17.789062 C 7.4375 18.109375 7.308594 17.4375 7.949219 16.058594 C 8.429688 15.097656 8.492188 14.742188 8.171875 14.617188 C 7.917969 14.519531 7.628906 14.96875 7.371094 15.898438 Z M 7.371094 15.898438 "/>
<path style=" stroke:none;fill-rule:nonzero;fill:rgb(0%,0%,0%);fill-opacity:1;" d="M 10.511719 16.667969 C 10.578125 17.53125 10.769531 18.269531 10.960938 18.269531 C 11.152344 18.269531 11.1875 18.042969 11.089844 17.757812 C 10.992188 17.46875 10.898438 16.761719 10.898438 16.152344 C 10.898438 15.542969 10.800781 15.0625 10.671875 15.0625 C 10.511719 15.0625 10.480469 15.769531 10.511719 16.667969 Z M 10.511719 16.667969 "/>
</g>
</svg>
