<?xml version="1.0" encoding="UTF-8"?>
<svg xmlns="http://www.w3.org/2000/svg" xmlns:xlink="http://www.w3.org/1999/xlink" width="63pt" height="63pt" viewBox="0 0 63 63" version="1.1">
<g id="surface1">
<path style=" stroke:none;fill-rule:nonzero;fill:rgb(0%,0%,0%);fill-opacity:1;" d="M 31.703125 10.296875 L 32.710938 16.355469 L 34.832031 13.429688 L 36.851562 10.601562 L 37.355469 14.035156 L 37.859375 17.367188 L 41.089844 12.722656 C 42.910156 10.195312 44.019531 7.976562 43.617188 7.671875 C 43.210938 7.472656 42.203125 8.582031 41.496094 10.195312 C 39.679688 14.234375 38.0625 13.933594 38.566406 9.589844 C 38.871094 7.167969 38.566406 6.058594 37.660156 6.058594 C 36.953125 6.058594 36.347656 6.867188 36.347656 7.976562 C 36.347656 8.984375 35.640625 10.5 34.730469 11.207031 C 33.214844 12.417969 33.117188 12.214844 33.519531 8.882812 C 33.820312 6.160156 33.519531 5.046875 32.308594 4.746094 C 30.894531 4.441406 30.894531 5.046875 31.703125 10.296875 Z M 31.703125 10.296875 "/>
<path style=" stroke:none;fill-rule:nonzero;fill:rgb(0%,0%,0%);fill-opacity:1;" d="M 14.035156 11.914062 C 11.8125 13.832031 11.207031 15.042969 11.914062 15.546875 C 12.621094 15.953125 13.125 15.648438 13.125 14.742188 C 13.125 12.214844 14.839844 12.820312 17.871094 16.558594 C 19.382812 18.476562 21 19.789062 21.402344 19.585938 C 21.910156 19.285156 20.898438 17.367188 19.183594 15.347656 C 16.355469 11.914062 16.253906 11.507812 17.871094 10.296875 C 18.777344 9.691406 19.082031 9.085938 18.375 9.085938 C 17.769531 9.085938 15.75 10.398438 14.035156 11.914062 Z M 14.035156 11.914062 "/>
<path style=" stroke:none;fill-rule:nonzero;fill:rgb(0%,0%,0%);fill-opacity:1;" d="M 47.957031 18.777344 C 45.734375 20.695312 44.828125 21.808594 45.9375 21.304688 C 49.066406 19.6875 53.003906 16.355469 52.5 15.75 C 52.195312 15.445312 50.179688 16.859375 47.957031 18.777344 Z M 47.957031 18.777344 "/>
<path style=" stroke:none;fill-rule:nonzero;fill:rgb(0%,0%,0%);fill-opacity:1;" d="M 7.167969 21.605469 C 8.179688 22.714844 17.164062 26.148438 17.164062 25.441406 C 17.164062 25.039062 15.246094 23.929688 12.820312 22.917969 C 8.785156 21.304688 6.257812 20.695312 7.167969 21.605469 Z M 7.167969 21.605469 "/>
<path style=" stroke:none;fill-rule:nonzero;fill:rgb(0%,0%,0%);fill-opacity:1;" d="M 55.527344 24.734375 C 57.042969 26.554688 55.628906 27.257812 50.078125 27.5625 C 47.25 27.765625 46.441406 28.167969 46.441406 29.683594 C 46.441406 30.996094 46.746094 31.296875 47.753906 30.589844 C 48.359375 29.984375 50.683594 29.277344 52.902344 28.976562 C 56.335938 28.472656 56.742188 28.570312 56.234375 30.289062 C 55.933594 31.398438 56.132812 32.308594 56.640625 32.308594 C 57.648438 32.308594 57.851562 27.257812 56.941406 24.835938 C 56.640625 23.929688 55.832031 23.222656 55.328125 23.222656 C 54.722656 23.222656 54.820312 23.828125 55.527344 24.734375 Z M 55.527344 24.734375 "/>
<path style=" stroke:none;fill-rule:nonzero;fill:rgb(0%,0%,0%);fill-opacity:1;" d="M 4.039062 33.214844 C 4.039062 33.621094 5.148438 33.820312 6.5625 33.519531 C 7.976562 33.316406 9.085938 32.914062 9.085938 32.710938 C 9.085938 32.507812 7.976562 32.308594 6.5625 32.308594 C 5.148438 32.308594 4.039062 32.710938 4.039062 33.214844 Z M 4.039062 33.214844 "/>
<path style=" stroke:none;fill-rule:nonzero;fill:rgb(0%,0%,0%);fill-opacity:1;" d="M 8.882812 36.246094 C 6.058594 38.972656 4.746094 42.605469 7.371094 40.382812 C 15.347656 33.621094 15.648438 33.316406 13.628906 33.417969 C 12.519531 33.519531 10.398438 34.730469 8.882812 36.246094 Z M 8.882812 36.246094 "/>
<path style=" stroke:none;fill-rule:nonzero;fill:rgb(0%,0%,0%);fill-opacity:1;" d="M 11.609375 40.382812 C 10.601562 41.496094 9.1875 42.402344 8.378906 42.402344 C 7.671875 42.402344 7.066406 42.808594 7.066406 43.3125 C 7.066406 45.535156 8.785156 45.027344 13.023438 41.796875 C 16.355469 39.171875 16.960938 38.367188 15.445312 38.367188 C 14.335938 38.367188 12.621094 39.273438 11.609375 40.382812 Z M 11.609375 40.382812 "/>
<path style=" stroke:none;fill-rule:nonzero;fill:rgb(0%,0%,0%);fill-opacity:1;" d="M 44.421875 41.191406 C 44.421875 42.203125 46.441406 45.128906 46.441406 44.121094 C 46.441406 43.714844 48.058594 44.019531 49.976562 44.828125 C 55.429688 47.148438 54.921875 45.230469 49.371094 42.707031 C 46.644531 41.496094 44.421875 40.789062 44.421875 41.191406 Z M 44.421875 41.191406 "/>
<path style=" stroke:none;fill-rule:nonzero;fill:rgb(0%,0%,0%);fill-opacity:1;" d="M 41.898438 47.554688 C 44.121094 51.894531 44.929688 52.703125 44.019531 49.671875 C 43.109375 47.046875 43.515625 46.945312 47.453125 48.964844 C 49.066406 49.875 50.582031 50.078125 50.984375 49.570312 C 51.289062 49.066406 50.582031 48.359375 49.472656 47.957031 C 48.359375 47.652344 47.453125 46.945312 47.453125 46.542969 C 47.453125 46.242188 46.644531 45.835938 45.734375 45.835938 C 44.726562 45.734375 43.109375 45.332031 42 44.929688 C 40.285156 44.121094 40.285156 44.222656 41.898438 47.554688 Z M 41.898438 47.554688 "/>
<path style=" stroke:none;fill-rule:nonzero;fill:rgb(0%,0%,0%);fill-opacity:1;" d="M 23.222656 50.078125 C 22.007812 54.316406 19.890625 55.933594 18.878906 53.207031 C 18.476562 52.296875 18.273438 52.296875 18.273438 53.308594 C 18.171875 55.226562 25.242188 57.953125 26.652344 56.539062 C 27.460938 55.730469 27.359375 55.527344 26.148438 56.035156 C 23.421875 57.042969 23.019531 54.921875 25.039062 50.582031 C 26.554688 47.554688 26.753906 46.441406 25.746094 46.039062 C 24.9375 45.734375 24.027344 47.148438 23.222656 50.078125 Z M 23.222656 50.078125 "/>
<path style=" stroke:none;fill-rule:nonzero;fill:rgb(0%,0%,0%);fill-opacity:1;" d="M 33.117188 52.5 C 33.316406 55.226562 33.921875 57.546875 34.527344 57.546875 C 35.132812 57.546875 35.234375 56.839844 34.933594 55.933594 C 34.628906 55.023438 34.328125 52.804688 34.328125 50.882812 C 34.328125 48.964844 34.023438 47.453125 33.621094 47.453125 C 33.117188 47.453125 33.015625 49.671875 33.117188 52.5 Z M 33.117188 52.5 "/>
</g>
</svg>
