<?xml version="1.0" standalone="no"?>
<!DOCTYPE svg PUBLIC "-//W3C//DTD SVG 20010904//EN"
 "http://www.w3.org/TR/2001/REC-SVG-20010904/DTD/svg10.dtd">
<svg version="1.0" xmlns="http://www.w3.org/2000/svg"
 width="62.000000pt" height="62.000000pt" viewBox="0 0 62.000000 62.000000"
 preserveAspectRatio="xMidYMid meet">

<g transform="translate(0.000000,62.000000) scale(0.100000,-0.100000)"
fill="#000000" stroke="none">
<path d="M314 518 l10 -60 21 29 20 28 5 -34 5 -33 32 46 c18 25 29 47 25 50
-4 2 -14 -9 -21 -25 -18 -40 -34 -37 -29 6 3 24 0 35 -9 35 -7 0 -13 -8 -13
-19 0 -10 -7 -25 -16 -32 -15 -12 -16 -10 -12 23 3 27 0 38 -12 41 -14 3 -14
-3 -6 -55z"/>
<path d="M139 502 c-22 -19 -28 -31 -21 -36 7 -4 12 -1 12 8 0 25 17 19 47
-18 15 -19 31 -32 35 -30 5 3 -5 22 -22 42 -28 34 -29 38 -13 50 9 6 12 12 5
12 -6 0 -26 -13 -43 -28z"/>
<path d="M475 434 c-22 -19 -31 -30 -20 -25 31 16 70 49 65 55 -3 3 -23 -11
-45 -30z"/>
<path d="M71 406 c10 -11 99 -45 99 -38 0 4 -19 15 -43 25 -40 16 -65 22 -56
13z"/>
<path d="M550 375 c15 -18 1 -25 -54 -28 -28 -2 -36 -6 -36 -21 0 -13 3 -16
13 -9 6 6 29 13 51 16 34 5 38 4 33 -13 -3 -11 -1 -20 4 -20 10 0 12 50 3 74
-3 9 -11 16 -16 16 -6 0 -5 -6 2 -15z"/>
<path d="M40 291 c0 -4 11 -6 25 -3 14 2 25 6 25 8 0 2 -11 4 -25 4 -14 0 -25
-4 -25 -9z"/>
<path d="M88 261 c-28 -27 -41 -63 -15 -41 79 67 82 70 62 69 -11 -1 -32 -13
-47 -28z"/>
<path d="M115 220 c-10 -11 -24 -20 -32 -20 -7 0 -13 -4 -13 -9 0 -22 17 -17
59 15 33 26 39 34 24 34 -11 0 -28 -9 -38 -20z"/>
<path d="M440 212 c0 -10 20 -39 20 -29 0 4 16 1 35 -7 54 -23 49 -4 -6 21
-27 12 -49 19 -49 15z"/>
<path d="M415 149 c22 -43 30 -51 21 -21 -9 26 -5 27 34 7 16 -9 31 -11 35 -6
3 5 -4 12 -15 16 -11 3 -20 10 -20 14 0 3 -8 7 -17 7 -10 1 -26 5 -37 9 -17 8
-17 7 -1 -26z"/>
<path d="M230 124 c-12 -42 -33 -58 -43 -31 -4 9 -6 9 -6 -1 -1 -19 69 -46 83
-32 8 8 7 10 -5 5 -27 -10 -31 11 -11 54 15 30 17 41 7 45 -8 3 -17 -11 -25
-40z"/>
<path d="M328 100 c2 -27 8 -50 14 -50 6 0 7 7 4 16 -3 9 -6 31 -6 50 0 19 -3
34 -7 34 -5 0 -6 -22 -5 -50z"/>
</g>
</svg>
